<svg width="88" height="88" viewBox="0 0 88 88" fill="none" xmlns="http://www.w3.org/2000/svg">
<rect x="15" y="8" width="58" height="72" rx="12" fill="#9FE870"/>
<path d="M59.1579 28H28.8421C27.2884 28 26 26.8667 26 25.5C26 24.1333 27.2884 23 28.8421 23H59.1579C60.7116 23 62 24.1333 62 25.5C62 26.8667 60.7116 28 59.1579 28Z" fill="#1D3208"/>
<path d="M43.2727 41H28.7273C27.2364 41 26 39.8667 26 38.5C26 37.1333 27.2364 36 28.7273 36H43.2727C44.7636 36 46 37.1333 46 38.5C46 39.8667 44.7636 41 43.2727 41Z" fill="#1D3208"/>
<path d="M69.6353 67.9067L67.6675 65.7515L65.3248 67.4757L67.6675 69.8056L69.6353 67.9067Z" fill="#1D3208"/>
<path d="M77.967 75.1401L69.9465 67.1196L66.9083 70.2121L74.929 78.1869C75.7464 78.9997 77.0591 79.0237 77.9058 78.2415C78.8029 77.4125 78.8307 76.0038 77.967 75.1401Z" fill="url(#paint0_linear_2520_804)"/>
<path d="M56.6541 44C49.6685 44 44.0048 49.6629 44.0047 56.6484C44.0047 63.6341 49.6684 69.2979 56.6541 69.2979C63.6397 69.2977 69.3026 63.634 69.3026 56.6484C69.3024 49.663 63.6396 44.0001 56.6541 44Z" stroke="#1D3208" stroke-width="4"/>
<defs>
<linearGradient id="paint0_linear_2520_804" x1="68.4954" y1="68.8896" x2="77.9704" y2="77.1803" gradientUnits="userSpaceOnUse">
<stop stop-color="#1D3208"/>
<stop offset="1" stop-color="#9FE870"/>
</linearGradient>
</defs>
</svg>
